<svg width="243" height="161" viewBox="0 0 243 161" fill="none" xmlns="http://www.w3.org/2000/svg">
<g clip-path="url(#clip0_6_544)">
<mask id="mask0_6_544" style="mask-type:alpha" maskUnits="userSpaceOnUse" x="0" y="17" width="243" height="125">
<rect x="0.36972" y="17.3471" width="242.378" height="124.058" transform="rotate(0.0890876 0.36972 17.3471)" fill="url(#paint0_linear_6_544)"/>
</mask>
<g mask="url(#mask0_6_544)">
<path d="M212.344 33.97L198.653 28.5687L142.233 28.6886L132.473 24.5489L124.203 28.5716L88.8911 28.403L74.9109 20.8389L54.5663 20.8073L51.4077 28.3422L33.676 28.3147L0.255748 90.6476L37.2738 139.928L205.543 140.19L242.714 91.0246L212.342 33.9675L212.344 33.97ZM204.69 137.957L38.1328 137.698L2.62312 90.4239L34.7258 30.5479L52.5919 30.5756L55.7485 23.0407L74.4934 23.0698L88.4693 30.6314L124.576 30.8037L132.517 26.9386L141.899 30.9196L198.342 30.7998L211.093 35.8289L240.347 90.7886L204.69 137.952L204.69 137.957Z" fill="url(#paint1_linear_6_544)"/>
</g>
<path d="M240.349 90.7933L204.69 137.954L38.1328 137.695L2.62307 90.4236L34.7257 30.5476L52.5919 30.5754L55.7484 23.0404L74.4933 23.0696L88.4714 30.6312L124.576 30.8059L132.517 26.9409L141.899 30.9218L198.342 30.802L211.093 35.8336L240.349 90.7933Z" fill="url(#paint2_linear_6_544)"/>
<path d="M240.344 90.7932L211.094 35.8336L198.34 30.8045L141.901 30.9193L132.519 26.9384L124.573 30.8034L88.4688 30.6336L74.4928 23.072L55.75 23.0429L52.5935 30.5778L34.7294 30.5501L2.62469 90.4236L24.0309 90.4569L40.143 104.581L66.2727 104.621L70.2068 90.5287L87.1564 90.555L91.0827 70.613L94.9486 70.619L100.174 67.9532L99.0582 81.4891L113.482 90.596L240.344 90.7932Z" fill="#4A357D"/>
<path d="M13.9715 83.0745L32.2076 83.1029L35.3529 76.0399L27.2659 76.0273L33.0063 64.2433L42.3882 60.2446L45.3605 53.5767L36.4312 57.2129L41.1951 47.4316L38.4049 42.4576L43.6161 42.4657L50.3052 42.4761L52.324 37.9444L38.1828 37.9224L13.9715 83.0745Z" fill="white"/>
<path d="M59.647 30.4132L49.0211 55.7915L61.8429 64.7673L66.8749 67.8346L59.2449 72.6887L53.8399 89.1612L45.2064 89.1478L54.478 64.0714L47.5884 59.212L34.5001 90.4656L42.2235 97.2168L61.7377 97.2471L71.4597 62.4074L58.261 53.8387L65.4026 34.5245L71.7595 34.5344L76.0824 36.6787L69.9579 40.0277L65.761 52.8248L72.874 57.3336L79.4187 33.879L73.105 30.4341L59.647 30.4132Z" fill="white"/>
<path d="M83.4337 37.9923L72.3229 83.1648L82.1757 83.1801L86.1041 63.2381L93.655 63.2498L103.042 58.4627L104.807 41.8733L97.5728 38.0143L83.4316 37.9923L83.4337 37.9923ZM96.08 47.6475L94.5511 57.4931L87.2398 57.4818L90.183 42.5351L96.872 42.5455L101.804 44.9133L96.08 47.645L96.08 47.6475Z" fill="white"/>
<path d="M108.937 38.032L105.698 77.3177L115.064 83.2312L133.3 83.2596L130.941 41.914L123.08 38.054L108.939 38.032L108.937 38.032ZM123.191 51.9575L123.389 76.1738L115.302 76.1613L116.428 42.5759L123.117 42.5863L128.254 44.9544L123.193 51.9575L123.191 51.9575Z" fill="white"/>
<path d="M136.333 41.9396L140.084 83.2701L149.937 83.2854L147.149 63.333L154.7 63.3447L158.318 83.2985L168.173 83.3138L163.782 64.2411L157.986 61.3456L162.472 58.5551L157.764 38.1079L143.623 38.0859L136.333 41.9396V41.9396ZM153.657 57.585L146.346 57.5737L144.978 47.7754L139.277 44.974L144.257 42.6217L150.946 42.6321L153.657 57.5875L153.657 57.585Z" fill="white"/>
<path d="M161.412 42.6484L167.998 42.6586L179.688 83.3317L189.543 83.3471L177.515 47.5839L170.622 42.6084L182.327 42.6266L180.639 38.1435L160.295 38.1119L161.412 42.6484Z" fill="white"/>
<path d="M215.263 57.5548L206.973 41.9803L197.309 38.1694L183.168 38.1474L190.187 56.0108L210.276 64.9979L215.749 76.3199L207.66 76.3074L202.358 64.3011L191.531 59.4356L198.612 77.4622L210.785 83.3801L229.021 83.4084L217.965 62.635L197.831 54.0555L195.018 47.6852L187.607 42.6891L199.503 42.7076L204.497 53.0403L215.263 57.5548Z" fill="white"/>
<path d="M132.84 32.6545C131.806 33.8366 130.635 34.932 129.349 35.9259C130.752 36.9339 132.085 38.0827 133.33 39.3524C134.389 38.0863 135.556 36.9414 136.81 35.9375C135.378 34.9394 134.047 33.8401 132.84 32.6545Z" fill="#E2D45C"/>
<path d="M25.0924 77.5063L31.029 65.3174C28.8339 65.608 26.6577 65.9061 24.5004 66.2166L16.2549 81.5949L31.4451 81.6185L33.2698 77.5191L25.0924 77.5063V77.5063Z" fill="url(#paint3_linear_6_544)"/>
<path d="M67.5451 61.5607C65.1946 61.7374 62.8588 61.9265 60.5377 62.1281L62.457 63.4705L68.7638 67.3132L69.9349 63.1114L67.5451 61.5607V61.5607ZM60.2527 73.7302L54.7061 90.6449L43.2852 90.6271L52.8819 64.6739L50.5847 63.0541C49.4662 63.1661 48.3497 63.2805 47.2396 63.3999L36.0967 90.0105L42.6424 95.7343L60.8239 95.7625L68.4214 68.536L60.2527 73.7302V73.7302Z" fill="url(#paint4_linear_6_544)"/>
<path d="M97.0309 59.9137L93.3976 61.7665L85.1046 61.7536L81.1762 81.6956L74.0016 81.6845L79.1444 60.7731C85.0268 60.419 90.9911 60.1317 97.0309 59.9137Z" fill="url(#paint5_linear_6_544)"/>
<path d="M131.951 81.7748L115.384 81.749L107.034 76.4796L108.429 59.5807C110.478 59.5345 112.534 59.4982 114.599 59.4692L113.99 77.6445L124.663 77.6611L124.515 59.3883C125.458 59.3873 126.404 59.3863 127.352 59.3878C128.462 59.3895 129.57 59.3937 130.674 59.4003L131.951 81.7748V81.7748Z" fill="url(#paint6_linear_6_544)"/>
<path d="M166.525 81.8284L159.34 81.8172L155.722 61.8634L145.663 61.8478L148.451 81.8003L141.217 81.789L139.194 59.4925C145.349 59.591 151.439 59.7611 157.455 59.9978L155.054 61.4917L162.725 65.3242L166.525 81.8284V81.8284Z" fill="url(#paint7_linear_6_544)"/>
<path d="M180.762 61.2696C178.706 61.1256 176.64 60.9889 174.563 60.8621L180.595 81.8501L187.688 81.8612L180.762 61.2696Z" fill="url(#paint8_linear_6_544)"/>
<path d="M217.651 64.8391C215.543 64.5763 213.42 64.3209 211.281 64.0754L217.919 77.8063L206.893 77.7891L201.459 65.4861L194.521 62.3664C194.365 62.3514 194.212 62.3388 194.056 62.3262L199.553 76.3147L211.037 81.8979L226.744 81.9223L217.651 64.8391V64.8391Z" fill="url(#paint9_linear_6_544)"/>
<path fill-rule="evenodd" clip-rule="evenodd" d="M100.695 116.463L100.7 113.413L93.5285 116.536L93.5138 116.536L93.5089 119.664L93.5236 119.664L100.685 122.809L100.69 119.755L97.0198 118.098L100.695 116.463V116.463Z" fill="#996DFF"/>
<path fill-rule="evenodd" clip-rule="evenodd" d="M142.195 122.716L142.199 119.666L145.872 118.031L142.205 116.384L142.209 113.335L149.36 116.477L149.377 116.477L149.372 119.608L149.355 119.608L142.195 122.713L142.195 122.716ZM139.143 109.022L134.909 124.896L137.409 124.9L141.642 109.026L139.143 109.022Z" fill="#996DFF"/>
<path fill-rule="evenodd" clip-rule="evenodd" d="M111.231 112.854C111.94 113.774 112.312 114.986 112.266 116.226L112.255 122.99L109.756 122.986L109.765 116.843C109.796 116.158 109.61 115.486 109.247 114.951C108.901 114.476 108.388 114.214 107.857 114.24C106.293 114.238 105.506 115.511 105.502 118.064L105.495 122.982L102.995 122.978L103.013 111.872L105.512 111.876L105.511 112.88C106.304 111.974 107.382 111.494 108.487 111.55C109.517 111.499 110.517 111.975 111.228 112.854L111.231 112.854Z" fill="white"/>
<path fill-rule="evenodd" clip-rule="evenodd" d="M115.46 107.273L115.436 123.153L117.935 123.157L117.96 107.277L115.46 107.273Z" fill="white"/>
<path fill-rule="evenodd" clip-rule="evenodd" d="M132.058 122.598L129.973 122.595L127.939 116.051L125.867 122.589L123.786 122.586L120.301 111.454L122.971 111.459L124.928 118.114L126.967 111.465L128.916 111.468L130.934 118.146L132.912 111.474L135.582 111.478L132.058 122.598V122.598Z" fill="white"/>
<path d="M10.5454 26.2399C13.3874 18.2102 19.1108 11.8877 27.5516 7.45006C35.6389 3.19722 45.8822 0.840721 57.9933 0.449321C82.821 -0.354779 112.78 7.15999 142.345 21.616C144.471 22.6547 146.578 23.7207 148.661 24.8137L145.712 24.819C144.448 24.1721 143.173 23.535 141.887 22.9077C81.3131 -6.70336 22.8852 -4.96793 11.644 26.7779C8.38814 35.9709 9.44148 46.6855 14.0528 57.9913C25.3593 85.7317 58.0769 117.022 101.113 138.06C105.276 140.095 109.444 141.99 113.606 143.744C138.855 154.39 163.801 159.803 184.975 159.117C196.931 158.731 207.019 156.416 214.963 152.239C223.12 147.952 228.635 141.879 231.356 134.19C233.812 127.252 233.816 119.448 231.686 111.175L232.603 109.963C235.098 119.081 235.052 127.402 232.457 134.728C229.613 142.758 223.891 149.08 215.449 153.518C207.361 157.771 197.12 160.127 185.009 160.518C183.743 160.559 182.465 160.579 181.175 160.577C159.831 160.544 135.05 154.656 110.125 143.738C106.967 142.357 103.81 140.894 100.655 139.352C71.0896 124.898 45.4361 105.229 28.4206 83.967C21.7299 75.6062 16.6639 67.3591 13.3107 59.3741C12.5023 57.4527 11.7947 55.5487 11.188 53.6622C7.91817 43.4977 7.70128 34.2721 10.5454 26.2399V26.2399Z" fill="url(#paint10_linear_6_544)"/>
<path d="M10.5454 26.2399C13.3874 18.2102 19.1108 11.8877 27.5516 7.45006C35.6389 3.19722 45.8822 0.840721 57.9933 0.449321C82.821 -0.354779 112.78 7.15999 142.345 21.616C144.471 22.6547 146.578 23.7207 148.661 24.8137L145.712 24.819C144.448 24.1721 143.173 23.535 141.887 22.9077C81.3131 -6.70336 22.8852 -4.96793 11.644 26.7779C8.38814 35.9709 9.44148 46.6855 14.0528 57.9913C25.3593 85.7317 58.0769 117.022 101.113 138.06C105.276 140.095 109.444 141.99 113.606 143.744C138.855 154.39 163.801 159.803 184.975 159.117C196.931 158.731 207.019 156.416 214.963 152.239C223.12 147.952 228.635 141.879 231.356 134.19C233.812 127.252 233.816 119.448 231.686 111.175L232.603 109.963C235.098 119.081 235.052 127.402 232.457 134.728C229.613 142.758 223.891 149.08 215.449 153.518C207.361 157.771 197.12 160.127 185.009 160.518C183.743 160.559 182.465 160.579 181.175 160.577C159.831 160.544 135.05 154.656 110.125 143.738C106.967 142.357 103.81 140.894 100.655 139.352C71.0896 124.898 45.4361 105.229 28.4206 83.967C21.7299 75.6062 16.6639 67.3591 13.3107 59.3741C12.5023 57.4527 11.7947 55.5487 11.188 53.6622C7.91817 43.4977 7.70128 34.2721 10.5454 26.2399V26.2399Z" fill="url(#paint11_radial_6_544)"/>
<path d="M10.5454 26.2399C13.3874 18.2102 19.1108 11.8877 27.5516 7.45006C35.6389 3.19722 45.8822 0.840721 57.9933 0.449321C82.821 -0.354779 112.78 7.15999 142.345 21.616C144.471 22.6547 146.578 23.7207 148.661 24.8137L145.712 24.819C144.448 24.1721 143.173 23.535 141.887 22.9077C81.3131 -6.70336 22.8852 -4.96793 11.644 26.7779C8.38814 35.9709 9.44148 46.6855 14.0528 57.9913C25.3593 85.7317 58.0769 117.022 101.113 138.06C105.276 140.095 109.444 141.99 113.606 143.744C138.855 154.39 163.801 159.803 184.975 159.117C196.931 158.731 207.019 156.416 214.963 152.239C223.12 147.952 228.635 141.879 231.356 134.19C233.812 127.252 233.816 119.448 231.686 111.175L232.603 109.963C235.098 119.081 235.052 127.402 232.457 134.728C229.613 142.758 223.891 149.08 215.449 153.518C207.361 157.771 197.12 160.127 185.009 160.518C183.743 160.559 182.465 160.579 181.175 160.577C159.831 160.544 135.05 154.656 110.125 143.738C106.967 142.357 103.81 140.894 100.655 139.352C71.0896 124.898 45.4361 105.229 28.4206 83.967C21.7299 75.6062 16.6639 67.3591 13.3107 59.3741C12.5023 57.4527 11.7947 55.5487 11.188 53.6622C7.91817 43.4977 7.70128 34.2721 10.5454 26.2399V26.2399Z" fill="url(#paint12_radial_6_544)"/>
<path d="M10.5454 26.2399C13.3874 18.2102 19.1108 11.8877 27.5516 7.45006C35.6389 3.19722 45.8822 0.840721 57.9933 0.449321C82.821 -0.354779 112.78 7.15999 142.345 21.616C144.471 22.6547 146.578 23.7207 148.661 24.8137L145.712 24.819C144.448 24.1721 143.173 23.535 141.887 22.9077C81.3131 -6.70336 22.8852 -4.96793 11.644 26.7779C8.38814 35.9709 9.44148 46.6855 14.0528 57.9913C25.3593 85.7317 58.0769 117.022 101.113 138.06C105.276 140.095 109.444 141.99 113.606 143.744C138.855 154.39 163.801 159.803 184.975 159.117C196.931 158.731 207.019 156.416 214.963 152.239C223.12 147.952 228.635 141.879 231.356 134.19C233.812 127.252 233.816 119.448 231.686 111.175L232.603 109.963C235.098 119.081 235.052 127.402 232.457 134.728C229.613 142.758 223.891 149.08 215.449 153.518C207.361 157.771 197.12 160.127 185.009 160.518C183.743 160.559 182.465 160.579 181.175 160.577C159.831 160.544 135.05 154.656 110.125 143.738C106.967 142.357 103.81 140.894 100.655 139.352C71.0896 124.898 45.4361 105.229 28.4206 83.967C21.7299 75.6062 16.6639 67.3591 13.3107 59.3741C12.5023 57.4527 11.7947 55.5487 11.188 53.6622C7.91817 43.4977 7.70128 34.2721 10.5454 26.2399V26.2399Z" fill="url(#paint13_radial_6_544)"/>
<path d="M232.625 26.5852C229.808 18.5467 224.104 12.2064 215.677 7.74257C207.603 3.4646 197.367 1.07626 185.257 0.647201C160.432 -0.234104 130.45 7.18747 100.84 21.5514C98.7111 22.5836 96.601 23.6429 94.514 24.7295L97.4633 24.744C98.7298 24.101 100.007 23.4678 101.294 22.8446C161.96 -6.57796 220.382 -4.66085 231.525 27.1198C234.752 36.3229 233.665 47.0341 229.019 58.3256C217.626 86.0306 184.811 117.219 141.71 138.123C137.54 140.146 133.367 142.027 129.199 143.768C103.917 154.335 78.9542 159.672 57.7825 158.919C45.8282 158.496 35.7478 156.149 27.8166 151.948C19.6732 147.636 14.1771 141.545 11.4794 133.848C9.04542 126.902 9.06596 119.098 11.2209 110.833L10.3084 109.618C7.78422 118.728 7.80492 127.049 10.3771 134.383C13.1962 142.421 18.8979 148.761 27.3269 153.225C35.4009 157.503 45.6347 159.892 57.7446 160.321C59.01 160.365 60.2881 160.389 61.5788 160.391C82.9219 160.424 107.722 154.613 132.681 143.773C135.842 142.402 139.004 140.949 142.164 139.416C171.774 125.055 197.489 105.466 214.57 84.2564C221.287 75.9165 226.379 67.6851 229.756 59.7106C230.571 57.7917 231.284 55.89 231.897 54.0053C235.198 43.8511 235.444 34.6262 232.625 26.5852V26.5852Z" fill="url(#paint14_linear_6_544)"/>
<path d="M232.625 26.5852C229.808 18.5467 224.104 12.2064 215.677 7.74257C207.603 3.4646 197.367 1.07626 185.257 0.647201C160.432 -0.234104 130.45 7.18747 100.84 21.5514C98.7111 22.5836 96.601 23.6429 94.514 24.7295L97.4633 24.744C98.7298 24.101 100.007 23.4678 101.294 22.8446C161.96 -6.57796 220.382 -4.66085 231.525 27.1198C234.752 36.3229 233.665 47.0341 229.019 58.3256C217.626 86.0306 184.811 117.219 141.71 138.123C137.54 140.146 133.367 142.027 129.199 143.768C103.917 154.335 78.9542 159.672 57.7825 158.919C45.8282 158.496 35.7478 156.149 27.8166 151.948C19.6732 147.636 14.1771 141.545 11.4794 133.848C9.04542 126.902 9.06596 119.098 11.2209 110.833L10.3084 109.618C7.78422 118.728 7.80492 127.049 10.3771 134.383C13.1962 142.421 18.8979 148.761 27.3269 153.225C35.4009 157.503 45.6347 159.892 57.7446 160.321C59.01 160.365 60.2881 160.389 61.5788 160.391C82.9219 160.424 107.722 154.613 132.681 143.773C135.842 142.402 139.004 140.949 142.164 139.416C171.774 125.055 197.489 105.466 214.57 84.2564C221.287 75.9165 226.379 67.6851 229.756 59.7106C230.571 57.7917 231.284 55.89 231.897 54.0053C235.198 43.8511 235.444 34.6262 232.625 26.5852V26.5852Z" fill="url(#paint15_radial_6_544)"/>
<path d="M232.625 26.5852C229.808 18.5467 224.104 12.2064 215.677 7.74257C207.603 3.4646 197.367 1.07626 185.257 0.647201C160.432 -0.234104 130.45 7.18747 100.84 21.5514C98.7111 22.5836 96.601 23.6429 94.514 24.7295L97.4633 24.744C98.7298 24.101 100.007 23.4678 101.294 22.8446C161.96 -6.57796 220.382 -4.66085 231.525 27.1198C234.752 36.3229 233.665 47.0341 229.019 58.3256C217.626 86.0306 184.811 117.219 141.71 138.123C137.54 140.146 133.367 142.027 129.199 143.768C103.917 154.335 78.9542 159.672 57.7825 158.919C45.8282 158.496 35.7478 156.149 27.8166 151.948C19.6732 147.636 14.1771 141.545 11.4794 133.848C9.04542 126.902 9.06596 119.098 11.2209 110.833L10.3084 109.618C7.78422 118.728 7.80492 127.049 10.3771 134.383C13.1962 142.421 18.8979 148.761 27.3269 153.225C35.4009 157.503 45.6347 159.892 57.7446 160.321C59.01 160.365 60.2881 160.389 61.5788 160.391C82.9219 160.424 107.722 154.613 132.681 143.773C135.842 142.402 139.004 140.949 142.164 139.416C171.774 125.055 197.489 105.466 214.57 84.2564C221.287 75.9165 226.379 67.6851 229.756 59.7106C230.571 57.7917 231.284 55.89 231.897 54.0053C235.198 43.8511 235.444 34.6262 232.625 26.5852V26.5852Z" fill="url(#paint16_radial_6_544)"/>
</g>
<defs>
<linearGradient id="paint0_linear_6_544" x1="121.559" y1="75.0513" x2="121.559" y2="135.845" gradientUnits="userSpaceOnUse">
<stop stop-color="#D9D9D9"/>
<stop offset="1" stop-color="#D9D9D9" stop-opacity="0"/>
</linearGradient>
<linearGradient id="paint1_linear_6_544" x1="0.271844" y1="80.2954" x2="242.732" y2="80.6724" gradientUnits="userSpaceOnUse">
<stop stop-color="#996DFF"/>
<stop offset="0.5" stop-color="#35E8B3"/>
<stop offset="1" stop-color="#E2D45C"/>
</linearGradient>
<linearGradient id="paint2_linear_6_544" x1="121.482" y1="92.3952" x2="121.413" y2="136.651" gradientUnits="userSpaceOnUse">
<stop stop-color="#28203E"/>
<stop offset="1" stop-color="#121214" stop-opacity="0"/>
</linearGradient>
<linearGradient id="paint3_linear_6_544" x1="24.7917" y1="61.3487" x2="24.7646" y2="78.7884" gradientUnits="userSpaceOnUse">
<stop stop-color="#A9A9AD"/>
<stop offset="1" stop-color="#A9A9AD" stop-opacity="0"/>
</linearGradient>
<linearGradient id="paint4_linear_6_544" x1="53.0405" y1="61.3923" x2="53.0134" y2="78.8321" gradientUnits="userSpaceOnUse">
<stop stop-color="#A9A9AD"/>
<stop offset="1" stop-color="#A9A9AD" stop-opacity="0"/>
</linearGradient>
<linearGradient id="paint5_linear_6_544" x1="85.5318" y1="61.4429" x2="85.5047" y2="78.8826" gradientUnits="userSpaceOnUse">
<stop stop-color="#A9A9AD"/>
<stop offset="1" stop-color="#A9A9AD" stop-opacity="0"/>
</linearGradient>
<linearGradient id="paint6_linear_6_544" x1="119.521" y1="61.4959" x2="119.494" y2="78.9357" gradientUnits="userSpaceOnUse">
<stop stop-color="#A9A9AD"/>
<stop offset="1" stop-color="#A9A9AD" stop-opacity="0"/>
</linearGradient>
<linearGradient id="paint7_linear_6_544" x1="152.874" y1="61.5476" x2="152.847" y2="78.9874" gradientUnits="userSpaceOnUse">
<stop stop-color="#A9A9AD"/>
<stop offset="1" stop-color="#A9A9AD" stop-opacity="0"/>
</linearGradient>
<linearGradient id="paint8_linear_6_544" x1="181.142" y1="61.5915" x2="181.115" y2="79.0312" gradientUnits="userSpaceOnUse">
<stop stop-color="#A9A9AD"/>
<stop offset="1" stop-color="#A9A9AD" stop-opacity="0"/>
</linearGradient>
<linearGradient id="paint9_linear_6_544" x1="210.416" y1="61.6374" x2="210.389" y2="79.0772" gradientUnits="userSpaceOnUse">
<stop stop-color="#A9A9AD"/>
<stop offset="1" stop-color="#A9A9AD" stop-opacity="0"/>
</linearGradient>
<linearGradient id="paint10_linear_6_544" x1="220.209" y1="115.181" x2="56.4486" y2="115.641" gradientUnits="userSpaceOnUse">
<stop stop-color="#996DFF"/>
<stop offset="0.5" stop-color="#35E8B3"/>
<stop offset="1" stop-color="#E2D45C"/>
</linearGradient>
<radialGradient id="paint11_radial_6_544" cx="0" cy="0" r="1" gradientUnits="userSpaceOnUse" gradientTransform="translate(119.903 146.694) rotate(18.4448) scale(111.622 211.931)">
<stop stop-color="#171226"/>
<stop offset="1" stop-color="#171226" stop-opacity="0"/>
</radialGradient>
<radialGradient id="paint12_radial_6_544" cx="0" cy="0" r="1" gradientUnits="userSpaceOnUse" gradientTransform="translate(148.317 25.5255) rotate(-153.432) scale(25.4861 47.019)">
<stop stop-color="#261945"/>
<stop offset="1" stop-color="#261945" stop-opacity="0"/>
</radialGradient>
<radialGradient id="paint13_radial_6_544" cx="0" cy="0" r="1" gradientUnits="userSpaceOnUse" gradientTransform="translate(232.866 107.93) rotate(78.7449) scale(32.7613 46.961)">
<stop stop-color="#191326"/>
<stop offset="1" stop-color="#191326" stop-opacity="0"/>
</radialGradient>
<linearGradient id="paint14_linear_6_544" x1="127.835" y1="18.2209" x2="175.785" y2="122.05" gradientUnits="userSpaceOnUse">
<stop stop-color="#996DFF"/>
<stop offset="0.5" stop-color="#35E8B3"/>
<stop offset="1" stop-color="#E2D45C"/>
</linearGradient>
<radialGradient id="paint15_radial_6_544" cx="0" cy="0" r="1" gradientUnits="userSpaceOnUse" gradientTransform="translate(92.2481 27.8626) rotate(-22.3462) scale(57.1697 107.111)">
<stop stop-color="#171225"/>
<stop offset="1" stop-color="#171225" stop-opacity="0"/>
</radialGradient>
<radialGradient id="paint16_radial_6_544" cx="0" cy="0" r="1" gradientUnits="userSpaceOnUse" gradientTransform="translate(10.409 109.099) rotate(70.6534) scale(43.3811 63.87)">
<stop stop-color="#191327"/>
<stop offset="1" stop-color="#191327" stop-opacity="0"/>
</radialGradient>
<clipPath id="clip0_6_544">
<rect width="242.46" height="160" fill="white" transform="translate(0.39624 0.295349) rotate(0.0890876)"/>
</clipPath>
</defs>
</svg>
